<svg xmlns="http://www.w3.org/2000/svg" width="30" height="34" viewBox="0 0 30 34">
  <g fill="none" fill-rule="evenodd">
    <polygon fill="#EBEBEB" points="0 0 25.833 0 30 0 30 4.146 30 34 0 34"/>
    <path fill="#006480" d="M17.8192918,4.8128999 C18.1004999,5.89417495 17.9773409,6.91435941 17.6305275,7.91919951 C17.347232,8.74005076 16.8950029,9.47084356 16.2596754,10.0826101 C16.0194706,10.3137792 15.9827913,10.4211897 16.2921798,10.645332 C18.4912986,12.2391372 19.3796537,14.864886 18.6244475,17.4477567 C17.9352938,19.8051945 15.6974083,21.5885813 13.0626108,21.8762521 C12.8136089,21.9034991 12.5622214,21.9260137 12.3118776,21.9261571 C8.35617747,21.9294554 4.40032819,21.9248664 0.444478916,21.9354839 C0.0940870802,21.9363389 -0.000444164043,21.835525 1.56680198e-06,21.5001003 L0.00674985407,11.0215375 L0.006,6.923 L4.255,6.923 L4.25985461,10.9831946 C4.25953777,13.2163359 4.25696574,15.4494772 4.25241811,17.6826544 C4.2519708,17.9564149 4.30877901,18.0576589 4.61876395,18.0557947 C6.92076376,18.0414542 9.22306178,18.0623913 11.5247634,18.0381558 C13.7961971,18.0142072 15.1931422,15.7785204 14.1169175,13.9043581 C13.5992322,13.0029131 12.7819991,12.4936814 11.705327,12.4680118 C10.3830824,12.4363193 9.05964499,12.4572564 7.73665488,12.4559658 C7.20062992,12.4555356 7.19779697,12.4561092 7.19660414,11.9602141 L7.1989677,10.1787075 C7.19836025,9.88181093 7.19620654,9.58494628 7.19093823,9.28814536 C7.18512322,8.95687939 7.27011188,8.82136149 7.65390277,8.82939218 C8.84404218,8.85420128 10.0358217,8.86194516 11.2256629,8.8326905 C13.4130026,8.77891356 15.3157048,8.09788236 16.7320334,6.4104336 C17.0488771,6.03284776 17.3083161,5.61984084 17.532716,5.18560996 C17.5954883,5.06428918 17.6287383,4.920884 17.8192918,4.8128999 Z M11.3594083,0.00323355403 C12.4292216,0.00481101101 13.4301495,0.248456412 14.2894295,0.89478356 C15.4834456,1.7927868 15.7813532,3.00326993 15.1424473,4.32446185 C14.7846003,5.06457599 14.1940037,5.59876028 13.4982895,6.04173888 C13.2895454,6.17453208 13.2284132,6.11473212 13.1577384,5.89747327 C12.7272783,4.57556432 11.7754054,3.90471489 10.3286598,3.90012592 C8.43684214,3.89424631 6.54487533,3.90700937 4.65305762,3.89553696 C4.58987941,3.89516151 4.53592928,3.89848515 4.49005759,3.90648941 L0.006,3.907 L0.00628896989,0.441750279 C0.00866834307,0.00197541258 0.0438393999,0.0012258815 0.56361214,0.0012258815 C4.16221085,0.000939071143 7.76080955,-0.002359248 11.3594083,0.00323355403 Z" transform="translate(6.649 6.403)"/>
  </g>
</svg>
