<?xml version="1.0" encoding="UTF-8"?>
<svg id="b" data-name="Layer 2" xmlns="http://www.w3.org/2000/svg" viewBox="0 0 1090.02 141.51">
  <defs>
    <style>
      .d, .e {
        fill: #006480;
      }

      .f {
        fill: #a3bbc1;
      }

      .g {
        fill: #ebebeb;
      }

      .g, .e {
        fill-rule: evenodd;
      }
    </style>
  </defs>
  <g id="c" data-name="Layer 2">
    <g>
      <g>
        <g>
          <path class="f" d="M201.6,118.61V22.89h27.14c8.74,0,15.58,2.19,20.52,6.56,4.94,4.37,7.41,10.45,7.41,18.23,0,5.25-1.27,9.64-3.8,13.18-2.54,3.54-6.08,5.92-10.62,7.15,5.16,1.49,9.22,4.31,12.19,8.46,2.97,4.15,4.46,9.33,4.46,15.54,0,8.22-2.51,14.71-7.54,19.47-5.03,4.77-11.91,7.15-20.65,7.15h-29.11Zm11.54-54.94h15.47c5.07,0,9.07-1.35,12-4.07,2.93-2.71,4.39-6.38,4.39-11.01s-1.44-8.3-4.33-11.01c-2.88-2.71-6.86-4.06-11.93-4.06h-15.6v30.16Zm0,44.32h16.26c5.51,0,9.85-1.46,13.05-4.39,3.19-2.93,4.79-6.93,4.79-12s-1.6-9.51-4.79-12.79c-3.19-3.28-7.54-4.92-13.05-4.92h-16.26v34.09Z"/>
          <path class="f" d="M275.81,118.61V22.89h29.63c5.68,0,10.66,1.16,14.95,3.48,4.28,2.32,7.61,5.53,9.97,9.64,2.36,4.11,3.54,8.92,3.54,14.42,0,6.47-1.68,12.02-5.05,16.65-3.37,4.63-7.93,7.82-13.7,9.57l20.06,41.96h-13.9l-18.36-40.65h-15.34v40.65h-11.8Zm11.8-51.27h17.83c4.89,0,8.83-1.55,11.8-4.66,2.97-3.1,4.46-7.19,4.46-12.26s-1.49-9.26-4.46-12.33c-2.97-3.06-6.91-4.59-11.8-4.59h-17.83v33.83Z"/>
          <path class="f" d="M378.35,119.93c-8.57,0-15.34-2.45-20.32-7.34-4.98-4.89-7.47-11.62-7.47-20.19V49.12c0-8.57,2.49-15.3,7.47-20.19,4.98-4.89,11.76-7.34,20.32-7.34s15.34,2.43,20.32,7.28c4.98,4.85,7.47,11.56,7.47,20.13v43.4c0,8.57-2.49,15.3-7.47,20.19-4.98,4.9-11.76,7.34-20.32,7.34Zm0-10.62c5.16,0,9.11-1.46,11.87-4.39,2.75-2.93,4.13-7.1,4.13-12.52V49.12c0-5.42-1.38-9.59-4.13-12.52-2.75-2.93-6.71-4.39-11.87-4.39s-9,1.46-11.8,4.39c-2.8,2.93-4.2,7.1-4.2,12.52v43.27c0,5.42,1.4,9.59,4.2,12.52,2.8,2.93,6.73,4.39,11.8,4.39Z"/>
          <path class="f" d="M452.96,119.93c-8.57,0-15.34-2.45-20.33-7.34-4.98-4.89-7.47-11.62-7.47-20.19V49.12c0-8.57,2.49-15.3,7.47-20.19,4.98-4.89,11.76-7.34,20.33-7.34s15.34,2.43,20.32,7.28,7.47,11.56,7.47,20.13v43.4c0,8.57-2.49,15.3-7.47,20.19-4.98,4.9-11.76,7.34-20.32,7.34Zm0-10.62c5.16,0,9.11-1.46,11.87-4.39,2.75-2.93,4.13-7.1,4.13-12.52V49.12c0-5.42-1.38-9.59-4.13-12.52-2.75-2.93-6.71-4.39-11.87-4.39s-9.01,1.46-11.8,4.39c-2.8,2.93-4.2,7.1-4.2,12.52v43.27c0,5.42,1.4,9.59,4.2,12.52,2.8,2.93,6.73,4.39,11.8,4.39Z"/>
          <path class="f" d="M500.56,118.61V22.89h11.8V63.93h14.16l21.24-41.04h12.85l-23.73,46.02,25.04,49.7h-13.51l-22.29-44.32h-13.77v44.32h-11.8Z"/>
          <path class="f" d="M601.13,119.93c-9.27,0-16.65-2.4-22.16-7.21-5.51-4.81-8.26-11.23-8.26-19.28h11.8c0,4.81,1.71,8.68,5.11,11.6,3.41,2.93,7.91,4.39,13.51,4.39s9.75-1.46,12.98-4.39c3.23-2.93,4.85-6.8,4.85-11.6,0-3.76-.98-7.06-2.95-9.9-1.97-2.84-4.66-4.79-8.06-5.83l-14.16-4.46c-6.38-2.01-11.39-5.33-15.01-9.96-3.63-4.63-5.44-10.01-5.44-16.13,0-7.78,2.56-13.99,7.67-18.62,5.11-4.63,11.91-6.95,20.39-6.95s15.25,2.32,20.32,6.95c5.07,4.63,7.61,10.84,7.61,18.62h-11.8c0-4.63-1.46-8.3-4.39-11.01-2.93-2.71-6.84-4.06-11.74-4.06s-8.98,1.36-12,4.06c-3.02,2.71-4.52,6.29-4.52,10.75,0,3.5,1,6.51,3.02,9.05,2.01,2.54,4.76,4.37,8.26,5.51l14.69,4.72c6.03,1.92,10.82,5.33,14.36,10.23,3.54,4.9,5.31,10.58,5.31,17.05,0,8.04-2.67,14.47-8,19.28-5.33,4.81-12.46,7.21-21.37,7.21Z"/>
        </g>
        <g>
          <path class="d" d="M679.6,118.61V22.89h27.14c8.74,0,15.58,2.19,20.52,6.56,4.94,4.37,7.41,10.45,7.41,18.23,0,5.25-1.27,9.64-3.8,13.18-2.54,3.54-6.08,5.92-10.62,7.15,5.16,1.49,9.22,4.31,12.2,8.46,2.97,4.15,4.46,9.33,4.46,15.54,0,8.22-2.51,14.71-7.54,19.47-5.03,4.77-11.91,7.15-20.65,7.15h-29.11Zm11.54-54.94h15.47c5.07,0,9.07-1.35,12-4.07,2.93-2.71,4.39-6.38,4.39-11.01s-1.44-8.3-4.33-11.01c-2.88-2.71-6.86-4.06-11.93-4.06h-15.6v30.16Zm0,44.32h16.26c5.51,0,9.85-1.46,13.05-4.39,3.19-2.93,4.79-6.93,4.79-12s-1.6-9.51-4.79-12.79c-3.19-3.28-7.54-4.92-13.05-4.92h-16.26v34.09Z"/>
          <path class="d" d="M779.25,119.93c-8.92,0-15.74-2.47-20.46-7.41-4.72-4.94-7.08-11.65-7.08-20.13V22.89h11.8V92.39c0,5.25,1.29,9.4,3.87,12.46,2.58,3.06,6.53,4.59,11.87,4.59s9.18-1.53,11.8-4.59c2.62-3.06,3.93-7.21,3.93-12.46V22.89h11.8V92.39c0,8.57-2.34,15.3-7.02,20.19-4.68,4.9-11.52,7.34-20.52,7.34Z"/>
          <path class="d" d="M823.57,118.61v-10.75h19.54V33.64h-19.54v-10.75h51.14v10.75h-19.54V107.86h19.54v10.75h-51.14Z"/>
          <path class="d" d="M892.8,118.61V22.89h11.8V107.86h43.27v10.75h-55.07Z"/>
          <path class="d" d="M962.96,118.61V22.89h24.78c6.21,0,11.56,1.18,16.06,3.54,4.5,2.36,8,5.68,10.49,9.97,2.49,4.28,3.74,9.35,3.74,15.21v38.16c0,5.86-1.25,10.95-3.74,15.28s-5.99,7.67-10.49,10.03c-4.5,2.36-9.86,3.54-16.06,3.54h-24.78Zm11.8-10.49h12.98c5.77,0,10.29-1.62,13.57-4.85,3.28-3.23,4.92-7.74,4.92-13.51V51.61c0-5.68-1.64-10.14-4.92-13.37-3.28-3.23-7.8-4.85-13.57-4.85h-12.98V108.12Z"/>
          <path class="d" d="M1060.64,119.93c-9.27,0-16.65-2.4-22.16-7.21-5.51-4.81-8.26-11.23-8.26-19.28h11.8c0,4.81,1.71,8.68,5.11,11.6,3.41,2.93,7.91,4.39,13.51,4.39s9.75-1.46,12.98-4.39c3.23-2.93,4.85-6.8,4.85-11.6,0-3.76-.98-7.06-2.95-9.9-1.97-2.84-4.66-4.79-8.06-5.83l-14.16-4.46c-6.38-2.01-11.39-5.33-15.01-9.96-3.63-4.63-5.44-10.01-5.44-16.13,0-7.78,2.56-13.99,7.67-18.62,5.11-4.63,11.91-6.95,20.39-6.95s15.25,2.32,20.32,6.95c5.07,4.63,7.61,10.84,7.61,18.62h-11.8c0-4.63-1.46-8.3-4.39-11.01-2.93-2.71-6.84-4.06-11.74-4.06s-8.98,1.36-12,4.06c-3.02,2.71-4.52,6.29-4.52,10.75,0,3.5,1,6.51,3.02,9.05,2.01,2.54,4.76,4.37,8.26,5.51l14.69,4.72c6.03,1.92,10.82,5.33,14.36,10.23,3.54,4.9,5.31,10.58,5.31,17.05,0,8.04-2.67,14.47-8,19.28-5.33,4.81-12.46,7.21-21.37,7.21Z"/>
        </g>
      </g>
      <g>
        <polygon class="e" points="0 0 107.52 0 124.86 0 124.86 17.26 124.86 141.51 0 141.51 0 0"/>
        <path class="g" d="M101.84,46.68c1.17,4.5,.66,8.75-.79,12.93-1.18,3.42-3.06,6.46-5.71,9-1,.96-1.15,1.41,.14,2.34,9.15,6.63,12.85,17.56,9.71,28.31-2.87,9.81-12.18,17.23-23.15,18.43-1.04,.11-2.08,.21-3.12,.21-16.46,.01-32.93,0-49.39,.04-1.46,0-1.85-.42-1.85-1.81l.03-43.61v-17.06s17.68,0,17.68,0l.02,16.9c0,9.29-.01,18.59-.03,27.88,0,1.14,.23,1.56,1.52,1.55,9.58-.06,19.16,.03,28.74-.07,9.45-.1,15.27-9.4,10.79-17.2-2.15-3.75-5.56-5.87-10.04-5.98-5.5-.13-11.01-.04-16.52-.05-2.23,0-2.24,0-2.25-2.06v-7.41c0-1.24,0-2.47-.02-3.71-.02-1.38,.33-1.94,1.93-1.91,4.95,.1,9.91,.14,14.87,.01,9.1-.22,17.02-3.06,22.92-10.08,1.32-1.57,2.4-3.29,3.33-5.1,.26-.5,.4-1.1,1.19-1.55Zm-26.89-20.02c4.45,0,8.62,1.02,12.19,3.71,4.97,3.74,6.21,8.78,3.55,14.27-1.49,3.08-3.95,5.3-6.84,7.15-.87,.55-1.12,.3-1.42-.6-1.79-5.5-5.75-8.29-11.77-8.31-7.87-.02-15.75,.03-23.62-.02-.26,0-.49,.01-.68,.05H27.7s0-14.42,0-14.42c0-1.83,.16-1.83,2.32-1.83,14.98,0,29.95-.01,44.93,0Z"/>
      </g>
    </g>
  </g>
</svg>